<?xml version="1.0" encoding="utf-8"?>
<!-- Generator: Adobe Illustrator 19.0.0, SVG Export Plug-In . SVG Version: 6.00 Build 0)  -->
<svg version="1.1" id="Layer_1" xmlns="http://www.w3.org/2000/svg" xmlns:xlink="http://www.w3.org/1999/xlink" x="0px" y="0px"
	 viewBox="0 0 105.5 113.5" style="enable-background:new 0 0 105.5 113.5;" xml:space="preserve">
<g id="XMLID_17_">
	<path id="XMLID_42_" d="M81.8,41h-9v-7c0-14.5-6.7-23-20-23c-13.3,0-20,8.5-20,23v7h-10c-2.8,0-5,3.2-5,6v39c0,2.8,2.1,5.7,4.8,6.5
		l6,1.9c2.6,0.8,7,1.5,9.8,1.5h29c2.8,0,7.1-0.7,9.8-1.5l6-1.9c2.6-0.8,4.8-3.8,4.8-6.5V47C87.8,44.2,84.5,41,81.8,41z M42.8,32
		c0-7.2,4-11,10-11s10,3.8,10,11v9h-20V32z"/>
</g>
</svg>
