<?xml version="1.0" encoding="utf-8"?>
<!-- Generator: Adobe Illustrator 19.0.0, SVG Export Plug-In . SVG Version: 6.00 Build 0)  -->
<svg version="1.1" id="Layer_1" xmlns="http://www.w3.org/2000/svg" xmlns:xlink="http://www.w3.org/1999/xlink" x="0px" y="0px"
	 viewBox="0 0 105.5 113.5" style="enable-background:new 0 0 105.5 113.5;" xml:space="preserve">
<g id="XMLID_16_">
	<path id="XMLID_17_" d="M79.4,80.2C67,75.7,63.1,71.9,63.1,63.8c0-4.9,3.8-3.3,5.4-12.2c0.7-3.7,4-0.1,4.6-8.5
		c0-3.4-1.8-4.2-1.8-4.2s0.9-5,1.3-8.8C73.1,25.3,69.9,13,52.8,13S32.4,25.3,32.9,30.1c0.4,3.8,1.3,8.8,1.3,8.8s-1.8,0.8-1.8,4.2
		c0.6,8.4,4,4.8,4.6,8.5c1.7,8.9,5.4,7.3,5.4,12.2c0,8.1-3.9,11.9-16.3,16.4C13.8,84.7,5.8,89.3,5.8,92.4c0,3.1,0,10.5,0,10.5h47h47
		c0,0,0-7.4,0-10.5C99.8,89.3,91.7,84.7,79.4,80.2z"/>
</g>
</svg>
